<svg width="350" height="438" viewBox="0 0 350 438" fill="none" xmlns="http://www.w3.org/2000/svg">
<path d="M262.5 408.75H306.25V437.917H262.5V408.75Z" fill="#033EBF"/>
<path d="M228.958 341.667H258.125V370.833H228.958V341.667Z" fill="#090E3F"/>
<path d="M320.833 416.042H350V437.917H320.833V416.042Z" fill="#090E3F"/>
<path d="M253.75 277.5H282.917V306.667H253.75V277.5Z" fill="#090E3F"/>
<path d="M247.917 146.25H277.083V175.417H247.917V146.25Z" fill="#090E3F"/>
<path d="M313.542 341.667H328.125V356.25H313.542V341.667Z" fill="#090E3F"/>
<path d="M236.25 0.416748H265.417V29.5833H236.25V0.416748Z" fill="#090E3F"/>
<path d="M285.833 67.5H315V108.333H285.833V67.5Z" fill="#090E3F"/>
<path d="M350 1.01993e-06V40.8333H326.667V0L350 1.01993e-06Z" fill="#033EBF"/>
<path d="M262.5 0.416748H300.417V87.917H262.5V0.416748Z" fill="#033EBF"/>
<path d="M309.167 0H350V23.3333H309.167V0Z" fill="#033EBF"/>
<path d="M262.5 350.417H333.958V426.25H262.5V350.417Z" fill="#033EBF"/>
<path d="M175 87.917H262.5V175.417H175V87.917Z" fill="#033EBF"/>
<path d="M175 262.917H262.5V350.417H175V262.917Z" fill="#033EBF"/>
<path d="M87.5 175.417H175V262.917H87.5V175.417Z" fill="#033EBF"/>
<path d="M0 0.416748H87.5V437.917H0V0.416748Z" fill="#090E3F"/>
</svg>